<?xml version="1.0"?><svg width="640" height="480" xmlns="http://www.w3.org/2000/svg" xmlns:xlink="http://www.w3.org/1999/xlink">
 <title>goldberg swirl</title>

 <g>
  <title>Layer 1</title>
  <g opacity="0.704762" display="inline" id="layer3"/>
  <g display="inline" id="layer2"/>
  <g display="inline" id="layer7"/>
  <g display="inline" id="layer9"/>
  <g display="inline" id="layer10"/>
  <g display="inline" id="layer5"/>
  <a xlink:href="http://" id="svg_1">
   <g display="inline" id="layer1">
    <path fill="#490649" fill-rule="evenodd" id="path2326" d="m128.958954,343.346222c-2.079201,0.60968 -4.193176,0.81012 -6.232666,0.648438c-2.03949,-0.161682 -4.014458,-0.6828 -5.722244,-1.651123c-1.707764,-0.968384 -3.157516,-2.393677 -3.902435,-4.455139c-0.744919,-2.061523 -0.782005,-4.7854 0.640175,-8.17395c-3.347656,1.039429 -6.546364,2.500793 -9.648453,4.40863c-2.462311,1.504883 -4.842033,3.332642 -7.10041,5.519104c-2.258392,2.186462 -4.39872,4.730896 -6.324921,7.708252c-2.049469,3.208069 -3.866241,6.903503 -5.143059,11.142456c-1.168053,3.9104 -1.669441,8.255005 -1.203773,12.758545c0.465675,4.50354 1.898293,9.167114 4.647255,13.550232c0,0 0.000008,0 0.000008,0c2.847084,4.045044 6.555901,7.342896 10.835434,9.738464c4.279526,2.395508 9.13031,3.88855 14.10009,4.335449c7.914726,0.855042 16.233727,-0.026489 24.232567,-2.690247c7.495941,-2.507385 14.62088,-6.341797 21.161301,-11.051025c6.11232,-4.400696 11.860611,-9.473206 17.246384,-15.053772c5.385773,-5.580566 10.409119,-11.668701 15.106857,-18.031799c6.042679,-8.128357 12.047623,-16.446655 18.346024,-24.612183c7.256989,-9.404419 14.881973,-18.716919 23.161865,-27.489929c8.171814,-8.637268 16.859772,-16.782043 26.459152,-23.435669c0,0 0,0 0.000031,0c8.696472,-5.962524 17.960114,-10.856995 27.568756,-12.729248c0,0 0.000031,0 0.000031,0c9.838745,-1.978577 19.906281,-2.906006 29.761688,-2.532166c9.855408,0.373901 19.496246,2.050537 28.51535,5.222168c8.515778,2.922729 16.503967,7.176208 23.745422,12.356995c7.241455,5.180786 13.735229,11.287292 19.315399,17.936401c6.639465,7.889343 12.052032,16.54895 16.465729,25.478394c4.413696,8.929443 7.829437,18.126892 10.471954,27.178711c3.685669,12.676453 5.824799,25.101196 7.019775,36.789612c1.194977,11.688416 1.447937,22.640503 1.275848,32.520752l-7.420135,-0.508057c1.519653,-22.83136 -0.065186,-45.790405 -5.938049,-67.440369c-5.145142,-18.823608 -13.322845,-36.724243 -25.332703,-51.173523c-10.917755,-13.196594 -25.175385,-23.710693 -40.996704,-29.141907c0,0 0,0 -0.000031,0c-17.365265,-6.194946 -37.091034,-6.324036 -56.017578,-2.502991c-8.817017,1.689819 -17.512604,6.371399 -25.916107,12.133911c-9.162033,6.392883 -17.567886,14.342346 -25.646835,22.956543c-7.97171,8.53363 -15.436462,17.735779 -22.703735,27.267761c0,0 0,0 0,0c-6.070587,7.968079 -11.994781,16.278748 -18.142944,24.65625c-9.105194,12.540894 -19.923065,24.61377 -33.286255,34.386658c-6.639893,4.855835 -14.162949,9.025146 -22.522339,11.88269c-0.000031,0 -0.000031,0 -0.000031,0c-8.350693,2.834045 -17.39595,3.96991 -26.515877,3.032104c0,0 -0.000031,0 -0.000031,0c-10.650414,-0.798889 -21.474876,-6.19696 -28.94339,-16.454407c-6.026192,-9.813965 -7.159195,-21.002258 -4.121346,-30.857178c1.429298,-4.573608 3.434479,-8.784424 5.879906,-12.593079c2.709679,-4.219971 5.391243,-7.224731 7.805595,-9.605408c2.414345,-2.380676 4.584373,-4.129517 6.611427,-5.580078c1.641563,-1.189026 3.176056,-2.200317 4.732292,-3.132751c1.556252,-0.932434 3.134895,-1.785645 4.878365,-2.611938c1.743439,-0.826294 3.652267,-1.626465 5.873665,-2.402527c2.221413,-0.776062 4.756592,-1.529114 7.745209,-2.195801c2.70462,-0.603333 5.281723,-0.680176 7.590118,-0.324341c2.308426,0.355774 4.349197,1.142029 6.043625,2.256592c3.38887,2.229126 5.360077,5.736572 5.805222,9.964966c0.22258,2.114197 -0.164322,3.82135 -0.94017,5.223267c-0.775879,1.401917 -1.944458,2.499878 -3.342041,3.40509c-2.79512,1.810425 -6.511627,2.874695 -9.978302,3.972351c0,0 0,0 0,0l0.000046,-0.000183z"/>
    <path fill="#490649" fill-rule="evenodd" id="path3197" d="m252.214783,208.339645c-1.052231,-0.296997 -2.037033,-0.606445 -2.994156,-0.834595c-0.957153,-0.22821 -1.886932,-0.38269 -2.817184,-0.464355c-1.58931,-0.159546 -3.230637,-0.273315 -4.877457,-0.193665c-1.64682,0.079712 -3.29216,0.345459 -4.822296,0.835632c-1.530151,0.490173 -2.943359,1.205872 -4.115112,2.111084c-1.171738,0.905212 -2.099335,2.00116 -2.678604,3.155762c-0.32988,0.657593 -0.656769,1.541321 -0.975113,2.512451c-0.318329,0.97113 -0.626495,2.029907 -0.964294,3.014587c-0.675568,1.969299 -1.481873,3.671692 -3.104187,3.498352c-0.638245,-0.068176 -1.796127,-0.82373 -3.17981,-2.151855c-1.383698,-1.328064 -2.979248,-3.236389 -4.461334,-5.534424c-1.531708,-2.352051 -2.958923,-5.113586 -4.088806,-7.967407c-1.129868,-2.853821 -1.961304,-5.794312 -2.515686,-8.442139c-0.145447,-0.694702 -0.307236,-1.494568 -0.468994,-2.402832c-0.398407,-2.189575 -0.800415,-5.018616 -0.842621,-8.515625c-0.042206,-3.497009 0.272552,-7.670227 1.511139,-12.420502c0.854431,-3.176971 2.143921,-6.522675 4.026306,-9.8797c1.882385,-3.357025 4.358856,-6.726685 7.572083,-9.860321c3.057434,-2.880768 6.563507,-5.474823 10.453613,-7.63269c3.890106,-2.157867 8.165375,-3.878784 12.675446,-5.02066c5.07547,-1.309204 10.412811,-2.127625 15.888687,-2.425659c5.475891,-0.298035 11.090302,-0.07431 16.673035,0.62204c0,0 0,0 0,0c6.154266,0.749908 12.415039,2.13678 18.649048,4.208649c6.234009,2.071869 12.441132,4.829468 18.459747,8.272583c4.674438,2.674133 8.828674,5.508301 12.552582,8.38382c0,0 0,0 0,0c5.21524,4.019745 9.641052,8.036194 13.531158,11.962616c3.890106,3.926422 7.243011,7.766205 10.244385,11.52298c6.002747,7.51355 10.63266,14.674988 14.835144,22.034119c3.898926,6.830566 7.493805,13.842957 11.15448,21.785339c3.660675,7.942383 7.3909,16.816284 11.245941,27.485352c3.855042,10.669113 7.837433,23.143478 11.631042,38.330246c1.89682,7.593384 3.740112,15.865051 5.457947,24.909668c1.717834,9.044617 3.309326,18.864136 4.691254,29.512817l11.339264,-1.49585c-6.294037,-49.911133 -20.612762,-100.670029 -49.403046,-144.590256c-11.008759,-16.796661 -24.827728,-32.571075 -41.992004,-45.219391c0,0 0,0 0,0c-14.781891,-10.923553 -32.480408,-18.77066 -51.844177,-21.431091c-10.556824,-1.501709 -22.19693,-1.561401 -34.289413,1.065979c0,0 0,0 -0.000031,0c-8.948029,1.898499 -18.022263,6.113739 -26.131348,13.001038c-6.740692,6.000336 -11.732849,13.577698 -14.577621,22.081635c-0.695053,2.147644 -1.256546,4.30722 -1.688034,6.468628c-0.677521,3.400391 -0.999939,6.588318 -1.08429,9.569885c-0.084381,2.981567 0.070099,5.757507 0.385162,8.348999c0,0 0,0 0,0c0.539368,4.686462 1.532379,8.799744 2.774109,12.516907c1.24173,3.717163 2.737091,7.040955 4.454559,10.133728c1.867188,3.421753 4.05722,6.56781 6.694016,9.563354c2.636826,2.995544 5.721268,5.848022 9.546249,8.529663c2.447083,1.691467 5.167328,3.235962 8.22821,4.551453c2.463745,1.058838 5.168701,1.820435 7.962006,2.221802c2.793335,0.401428 5.673279,0.442383 8.472809,0.127441c0,0 0,0 0,0c3.891556,-0.541443 7.397995,-1.710571 10.304459,-3.259583c2.906433,-1.549072 5.216614,-3.468994 6.888855,-5.464539c1.672211,-1.995544 2.71228,-4.060364 3.177124,-5.970337c0.464844,-1.909973 0.358765,-3.663452 -0.242188,-5.166626c-0.68277,-1.707825 -1.65979,-3.515503 -2.88739,-5.237549c-1.2276,-1.722046 -2.704651,-3.360229 -4.312042,-4.793457c-1.607391,-1.433228 -3.343811,-2.657898 -5.028656,-3.615723c-0.842438,-0.478943 -1.670883,-0.891907 -2.462082,-1.253296c-0.791199,-0.36145 -1.54425,-0.669128 -2.245331,-0.979675c-0.125671,-0.039612 -0.254379,-0.07782 -0.386642,-0.114807l0.000092,0z"/>
    <path fill="#490649" fill-rule="evenodd" id="path3217" d="m348.904297,180.817337c-24.988678,-28.026611 -49.659454,-57.403534 -65.32312,-91.661568c0,0 0,0 0,0c-3.004303,-6.564636 -5.679596,-13.381561 -7.016418,-20.526848c0,0 0,0 0,0c-0.299225,-1.598572 -0.528778,-3.226723 -0.585938,-4.87516c0,0 0,0 0,0c0,0 0,0 0,0c0,0 0,0 0,0c-0.013794,-0.396721 -0.016907,-0.79974 0.002014,-1.207363c0,0 0,0 0,0c0,0 0,0 0,0c0.005005,-0.105007 0.01181,-0.212677 0.021515,-0.322758c0.143036,-0.010101 0.286011,-0.019989 0.429108,-0.0299c0.049713,-0.002991 0.099304,-0.006992 0.149109,-0.010201c0.000122,0 0.000214,0 0.000305,0l0,0c0.000397,0.000031 0.000763,0.000092 0.001007,0.00016c0.184418,0.026871 0.369019,0.053711 0.55365,0.080498c0.531799,0.077213 1.064026,0.154243 1.596527,0.230991c-0.002991,0.0397 -0.005005,0.089901 -0.006012,0.150421c-0.011902,0.30637 -0.005005,0.634609 0.010193,0.983551c0.062103,1.451389 0.29303,2.937435 0.589966,4.452419c0,0 0,0 0,0c1.331268,6.780876 4.007935,13.334335 7.024353,19.770805c0,0 0,0 0,0c15.777344,33.590553 40.551483,62.329575 65.763885,90.040298l-3.210144,2.924652z"/>
    <path fill="#490649" fill-rule="evenodd" id="path3223" d="m302.129425,20.627911c0,0 -0.588745,0.127989 -1.634491,0.43396c-1.045715,0.305969 -2.549225,0.796909 -4.337982,1.59955c-1.788696,0.80267 -3.862244,1.922178 -6.001495,3.470949c-2.139282,1.548759 -4.3414,3.5299 -6.365326,5.979698c-2.132751,2.705902 -3.949371,5.780613 -5.299744,9.002724c-1.350403,3.222099 -2.234314,6.584839 -2.668793,9.8153c-0.66449,4.618439 -0.552765,8.972469 -0.120056,12.4758c0.432709,3.503326 1.154633,6.16095 1.56546,7.566246c0.026794,0.091621 0.054596,0.183334 0.083496,0.275002c0.625031,2.057991 1.808197,4.125359 3.388977,5.86203c1.58078,1.736671 3.552246,3.135284 5.619843,3.965271c2.067627,0.829987 4.218262,1.089149 6.18045,0.730293c1.962189,-0.358864 3.725037,-1.331703 5.229858,-2.79731c1.52179,-1.48217 2.474091,-3.052513 3.127014,-4.506775c0.652954,-1.454247 1.004547,-2.803307 1.152679,-4.025627c0.296234,-2.444672 -0.232758,-4.423134 -1.656464,-6.116005c-0.25885,-0.30777 -0.598663,-0.616356 -1.004822,-0.940056c-1.377777,-1.138489 -3.538025,-2.484871 -5.721161,-4.370911c-1.091583,-0.943031 -2.184784,-2.012852 -3.178162,-3.190338c-0.993378,-1.17749 -1.885864,-2.462532 -2.591614,-3.790382c-0.780487,-1.469048 -1.330414,-2.99865 -1.562988,-4.43396c-0.345215,-2.129448 -0.391785,-4.311279 -0.145599,-6.444939c0.246155,-2.133671 0.784637,-4.218571 1.56012,-6.175842c0,0 0,0 0,0c1.133575,-2.726078 2.702148,-5.080238 4.355408,-6.984869c1.653259,-1.9046 3.388672,-3.3652 4.917145,-4.44894c1.528473,-1.08371 2.849731,-1.797668 3.756744,-2.25742c0.907013,-0.45974 1.400452,-0.672449 1.35141,-0.69342l0.000092,-0.000029z"/>
    <path fill="#490649" fill-rule="evenodd" id="path3227" d="m421.651093,184.904739c0,0 -0.745087,-0.071991 -2.123077,-0.116058c-1.37796,-0.044006 -3.396057,-0.056396 -5.942902,0.191162c-2.546844,0.247559 -5.625946,0.759857 -9.04187,1.83429c-3.415924,1.074432 -7.166382,2.718994 -10.962097,5.204956c-3.608704,2.68634 -6.753265,6.03064 -9.181915,9.766907c-2.42865,3.736267 -4.138306,7.854492 -5.081177,11.976746c0,0 0,0 0,0c-1.306915,5.7276 -1.566406,11.083618 -1.360748,15.5224c0.205627,4.438782 0.851959,7.964783 1.36377,10.299561c0.156891,0.767639 0.299957,1.414063 0.417206,1.927307c0.587067,2.57019 1.747192,5.198669 3.330109,7.531189c1.582916,2.33252 3.584564,4.36554 5.77594,5.849304c2.191345,1.483749 4.566223,2.419052 6.896027,2.678268c2.329773,0.259216 4.608795,-0.155151 6.700287,-1.278076c2.091614,-1.122971 3.527435,-2.624557 4.492065,-4.266769c0.964661,-1.642212 1.459229,-3.429993 1.620514,-5.22876c0.161255,-1.798767 -0.010986,-3.610779 -0.43158,-5.353088c-0.420593,-1.74231 -1.089661,-3.417114 -1.970612,-4.960938c-0.549042,-0.962158 -1.360321,-1.968872 -2.333405,-3.06427c-1.829132,-2.124451 -4.346191,-4.51416 -6.635681,-7.374268c-1.144745,-1.430054 -2.228485,-2.974976 -3.140411,-4.615112c-0.911926,-1.640198 -1.650787,-3.376404 -2.135925,-5.135193c-0.443207,-1.597839 -0.65271,-3.2276 -0.603516,-4.754456c0.085999,-2.67572 0.630127,-5.369568 1.614868,-7.906494c0.984741,-2.536926 2.409271,-4.915771 4.185852,-7.021851c0,0 0,0 0,0c2.74411,-3.068604 5.918579,-5.330414 8.928162,-6.966278c3.009613,-1.635864 5.85788,-2.65448 8.221802,-3.314758c2.363953,-0.660278 4.251892,-0.968597 5.520691,-1.148682c1.268799,-0.180084 1.927399,-0.236694 1.877594,-0.276978l0.000031,-0.000061z"/>
    <path fill="#490649" fill-rule="evenodd" id="path3233" d="m321.847717,225.640732c0,0 0.748779,-0.306641 2.107788,-0.825256c1.359039,-0.518616 3.33078,-1.24823 5.800171,-2.0495c4.938782,-1.6026 11.903961,-3.471619 19.794403,-4.331787c3.964844,-0.446655 8.193024,-0.549255 12.420654,-0.198669c4.227631,0.350586 8.450287,1.158936 12.390015,2.346863c4.836151,1.52533 8.971649,3.646423 12.157623,5.680603c3.185974,2.03418 5.43927,3.960449 6.705475,5.095459c0.537598,0.481812 1.059998,1.002747 1.561127,1.558105c1.870728,2.123474 3.391937,4.671631 4.370026,7.309082c0.978119,2.637451 1.416107,5.358521 1.300903,7.861084c-0.115204,2.502563 -0.775848,4.783813 -1.901093,6.638428c-1.125244,1.854599 -2.709167,3.281296 -4.686249,4.198349c-2.105957,0.976868 -4.127502,1.20575 -5.981781,1.004822c-1.854309,-0.200928 -3.545166,-0.834351 -5.038666,-1.685974c-1.4935,-0.851624 -2.789215,-1.921021 -3.886902,-3.084274c-1.097687,-1.163208 -2,-2.419983 -2.727631,-3.746887c-0.12558,-0.229004 -0.244385,-0.474304 -0.3591,-0.734802c-0.671143,-1.651978 -1.225647,-4.030457 -2.243835,-6.749817c-1.018188,-2.71936 -2.519958,-5.763733 -4.628204,-8.45636c-2.301208,-2.944763 -5.294922,-5.423157 -8.24054,-6.825623c-3.514404,-1.673523 -7.245667,-2.804199 -10.833832,-3.495972c0,0 0,0 0,0c-3.994324,-0.780212 -7.830261,-1.079712 -11.271271,-1.1203c-3.44101,-0.040588 -6.489258,0.175476 -8.99704,0.449463c-2.507813,0.274048 -4.478271,0.605286 -5.811859,0.841309c-1.333557,0.236023 -2.033325,0.376526 -2.000214,0.321716l0.000031,-0.000061z"/>
    <path fill="#490649" fill-rule="evenodd" id="path3310" d="m279.592712,267.351715c0,0 -0.794525,0.346985 -2.207916,0.997681c-1.41333,0.650696 -3.447876,1.60675 -5.916443,2.87915c-2.468567,1.2724 -5.371521,2.864075 -8.488708,4.809387c-3.117188,1.945313 -6.446289,4.249207 -9.749313,6.91156c-2.967407,2.358643 -6.071228,5.399475 -8.892212,9.192139c-2.283783,2.769409 -4.181915,6.955811 -5.158005,12.246521c-0.703873,5.435913 0.71669,10.652832 3.663925,15.103638c2.166229,2.744995 4.285904,4.752563 6.218414,6.210632c1.932495,1.45813 3.678055,2.36792 5.175186,2.921387c2.884827,1.238464 5.109436,1.966125 6.476379,2.394409c2.847626,0.892395 5.979462,1.188477 8.910309,0.865417c2.930847,-0.323059 5.659637,-1.255615 7.938538,-2.638428c2.2789,-1.382813 4.120361,-3.203979 5.418152,-5.297607c1.297791,-2.093689 2.06076,-4.457458 2.142487,-7.034058c0.081696,-2.576843 -0.500763,-4.756226 -1.518494,-6.571045c-1.0177,-1.814819 -2.468201,-3.260437 -4.07074,-4.34375c-1.602509,-1.083313 -3.346252,-1.801758 -5.016602,-2.202454c-1.670349,-0.400696 -3.263611,-0.48822 -4.751434,-0.334412c-1.545135,0.15979 -3.386505,0.951904 -5.644409,1.630005c-0.778656,0.25531 -1.566345,0.708435 -2.344421,1.15686c-0.778046,0.448425 -1.547211,0.887634 -2.28241,1.073914c-1.136841,0.685974 -2.802032,0.140137 -3.847519,-1.155029c-0.693909,-0.928772 -1.079865,-2.144531 -1.233383,-3.421143c-0.153488,-1.27655 -0.0755,-2.610535 0.152054,-3.827271c0.089691,-0.490479 0.202881,-0.967346 0.336868,-1.426697c0.886826,-3.040527 2.322998,-5.911804 3.865143,-8.448425c0,0 0,0 0,0c2.249084,-3.724915 4.814148,-6.963867 7.298004,-9.695984c2.483826,-2.732117 4.886871,-4.961609 6.932648,-6.724365c2.045776,-1.762817 3.737549,-3.062073 4.890259,-3.93396c1.15271,-0.871887 1.770081,-1.318604 1.703674,-1.338074l-0.000031,0z"/>
    <path fill="#490649" fill-rule="evenodd" id="path3925" d="m471.139404,337.481903c-1.407471,-0.82666 -2.503601,-1.596436 -3.35022,-2.376221c0,0 0,0 0,0c-1.265564,-1.123413 -1.939331,-2.265503 -2.254639,-3.448242c-0.315308,-1.182739 -0.267212,-2.401245 0.005981,-3.564148c0.273621,-1.162903 0.779114,-2.265381 1.376343,-3.178284c0.597229,-0.912903 1.287109,-1.633789 1.871094,-2.052673c0.593079,-0.425415 1.573303,-0.924072 2.409119,-1.473145c0.835815,-0.549072 1.526123,-1.157593 1.451294,-1.878601c-0.148193,-1.427551 -1.555359,-2.838257 -3.531006,-4.025269c-1.975647,-1.187012 -4.505432,-2.11322 -6.75946,-2.84021c-0.035614,-0.011475 -0.071014,-0.022827 -0.106354,-0.034119c-1.378906,-0.443726 -2.567413,-0.702393 -3.727142,-0.867859c-1.159729,-0.165466 -2.293365,-0.237793 -3.592712,-0.220825c-1.299347,0.017029 -2.766998,0.117859 -4.589081,0.425476c-1.822113,0.307617 -4.00705,0.808167 -6.660553,1.890747c-2.385315,1.069153 -5.017578,2.586365 -7.70105,4.865784c-2.683441,2.279419 -5.427856,5.350891 -7.735413,9.349243c-1.336151,2.258789 -2.576355,4.807556 -3.621887,7.671021c-1.045532,2.863464 -1.896179,6.043884 -2.431427,9.518616c-0.44101,2.885803 -0.70755,5.941833 -0.802673,9.159302c-0.095093,3.217529 -0.01709,6.597046 0.177856,10.111633c0.361633,6.815369 1.019135,14.346436 1.804108,22.676514c0.392487,4.165039 0.812286,8.529907 1.197388,13.105835c0.385101,4.575928 0.736481,9.362854 0.949554,14.372742l-6.712677,0.285706c-0.69519,-16.064087 -3.005554,-32.718689 -3.765198,-50.170898c-0.318298,-6.447876 -0.238373,-13.380737 0.964081,-20.621216c0,0 0,0 0,0c1.114532,-6.622192 3.484589,-13.210632 7.258789,-19.269287c0,0 0,0 0,0c3.91452,-6.572327 10.172729,-12.443176 18.625946,-15.893982c4.269165,-1.484497 8.584259,-2.127808 12.759064,-2.039063c3.467102,0.076111 6.324219,0.60144 8.767059,1.269409c2.054138,0.548523 3.816711,1.145752 5.416626,1.768188c1.599915,0.622437 3.036682,1.271912 4.409973,1.973083c2.746582,1.402344 5.270813,2.994934 8.036011,5.284973c0.295166,0.238525 0.594055,0.485474 0.896912,0.741821c1.340759,1.134827 2.435791,2.542786 3.256042,4.066711c0.820251,1.523865 1.365845,3.162354 1.654724,4.769165c0.57782,3.213562 0.107483,6.263428 -0.84436,8.33667c-0.787537,1.715271 -1.875,2.868469 -3.07312,3.611267c-1.19812,0.742798 -2.510254,1.078735 -3.849426,1.136353c-1.339111,0.057617 -2.708008,-0.162476 -4.076416,-0.585083c-1.368408,-0.422607 -2.737976,-1.048828 -4.103699,-1.850891l0.000549,-0.000244z"/>
    <path fill="#490649" fill-rule="evenodd" id="path3948" d="m418.58313,399.061249c-4.853088,-8.167786 -14.135162,-11.787537 -22.212555,-16.032471c-16.096313,-8.459167 -28.776001,-23.190125 -35.868591,-40.017761c-1.015015,-3.92511 -2.512115,-7.97406 -1.700287,-12.081177c15.999298,14.395935 38.736908,15.379822 53.724335,29.971375c7.967804,7.757324 9.942291,20.091125 9.240143,31.101257c-0.098114,1.538269 0.640381,3.132874 1.813232,4.19519"/>
    <path fill="#490649" fill-rule="evenodd" id="path2423" d="m235.851242,139.969681c0,0 -0.541672,0.677521 -1.536499,1.873077c-0.996063,1.196259 -2.447784,2.911957 -4.317657,4.965637c-1.87059,2.052429 -4.161285,4.442291 -6.850403,6.946533c-2.688416,2.505463 -5.77832,5.121429 -9.207153,7.619232c-3.04895,2.252075 -6.792084,4.459229 -11.186859,6.197968c-3.268341,1.485748 -7.803741,2.230804 -13.166626,1.798401c-5.43219,-0.732727 -10.100739,-3.460571 -13.633057,-7.462952c-2.08786,-2.804901 -3.475037,-5.373596 -4.38089,-7.618073c-0.90564,-2.245483 -1.330933,-4.166992 -1.476624,-5.757477c-0.446075,-3.106628 -0.570892,-5.444366 -0.628983,-6.87561c-0.121292,-2.981964 0.405502,-6.082581 1.47905,-8.828995c1.074493,-2.746109 2.683624,-5.139183 4.611298,-6.98053c1.927704,-1.841324 4.164551,-3.145897 6.523895,-3.855186c2.358398,-0.709534 4.839447,-0.832024 7.349228,-0.241577c2.50856,0.591164 4.462448,1.719643 5.950577,3.174294c1.487152,1.454407 2.506683,3.230347 3.135956,5.059692c0.630463,1.828629 0.870636,3.69931 0.823883,5.416138c-0.046997,1.717804 -0.376923,3.278687 -0.912292,4.675568c-0.554993,1.450623 -1.799164,3.022308 -3.040619,5.02655c-0.448654,0.685974 -1.090851,1.329193 -1.726593,1.963806c-0.634781,0.634857 -1.258514,1.263367 -1.62912,1.924805c-0.957901,0.919678 -0.864258,2.669098 0.115417,4.01593c0.716034,0.910339 1.789978,1.59906 2.983063,2.07959c1.192413,0.479309 2.500854,0.750641 3.735046,0.847687c0.496552,0.040405 0.986542,0.055298 1.465546,0.04541c3.166077,-0.066589 6.311584,-0.707214 9.16214,-1.536987c0,0 0,0 0,0c4.181458,-1.203796 7.975708,-2.83902 11.259323,-4.527771c3.283646,-1.688751 6.061462,-3.429718 8.294586,-4.947601c2.234116,-1.517609 3.927902,-2.812958 5.069534,-3.699768c1.141663,-0.88681 1.733643,-1.366455 1.734833,-1.297791z"/>
   </g>
  </a>
 </g>
</svg>